<svg width="461" height="289" fill="none" xmlns="http://www.w3.org/2000/svg"><g filter="url(#a)" fill="#001"><path fill-rule="evenodd" clip-rule="evenodd" d="M196.816 32.352A4.973 4.973 0 0 1 200 31.206a5.005 5.005 0 0 1 4.869 6.152l169.842 70.02c2.897 1.195 6 1.809 9.132 1.809h16.342c3.574 0 7.123.6 10.5 1.775l34.526 12.016a7.95 7.95 0 0 1 4.789-1.595c4.418 0 8 3.589 8 8.016s-3.582 8.015-8 8.015c-3.446 0-6.383-2.183-7.509-5.243l-29.183-2.333L428 236.107h3v50.098h-90.5v-35.069l7-15.029h12.179l-37.486-23.649-170.39-159.39-131.82 38.675A5.01 5.01 0 0 1 16 96.233v58.715a.501.501 0 1 1-1 0V96.333c-2.761 0-5-2.243-5-5.01a5.005 5.005 0 0 1 6.463-4.792L142.469 2.337a1.996 1.996 0 0 1 2.106-.07l52.241 30.085Zm198.928 96.082 3.901.311-33.805 99.042-22.585-25.459a8.027 8.027 0 0 1-.514-10.006l42.308-58.925a11.992 11.992 0 0 1 10.695-4.963ZM190.962 33.617c1.526.874 1.266 3.153-.417 3.66l-31.001 9.33a2 2 0 0 1-2.503-1.386l-9.49-34.377c-.246-.891.687-1.648 1.505-1.22l41.906 23.993Zm-32.366 17.458L324.41 185.577a7.989 7.989 0 0 0 11.146-1.058l43.509-51.624c6.999-8.305 3.896-21.033-6.136-25.169L204.545 38.307A5.001 5.001 0 0 1 200 41.225a4.978 4.978 0 0 1-3.37-1.309l-38.034 11.16Zm-14.657-38.279c-.726-2.632-3.81-3.78-6.077-2.264L30.361 82.482c-.952.637-.262 2.117.837 1.795l120.658-35.4a2.005 2.005 0 0 0 1.365-2.458l-9.282-33.623ZM421.5 236.107h-36l21.409-82.23c.555-2.13 3.634-1.936 3.919.247l10.672 81.983Zm-26.5 9.017v-3.507h12v3.507h-12Zm24.5-3.507H409v3.507h10.5v-3.507Z"/><path d="M15.5 159.457a.5.5 0 0 1 .5.501v6.011a.5.5 0 1 1-1 0v-6.011a.5.5 0 0 1 .5-.501Z"/></g><defs><filter id="a" x="1" y="1" width="457" height="286.205" filterUnits="userSpaceOnUse" color-interpolation-filters="sRGB"><feFlood flood-opacity="0" result="BackgroundImageFix"/><feColorMatrix in="SourceAlpha" values="0 0 0 0 0 0 0 0 0 0 0 0 0 0 0 0 0 0 127 0" result="hardAlpha"/><feOffset dx="-8"/><feGaussianBlur stdDeviation=".5"/><feColorMatrix values="0 0 0 0 0 0 0 0 0 0 0 0 0 0 0 0 0 0 0.2 0"/><feBlend in2="BackgroundImageFix" result="effect1_dropShadow_9_1"/><feBlend in="SourceGraphic" in2="effect1_dropShadow_9_1" result="shape"/></filter></defs></svg>