<svg width="457" height="293" viewBox="0 0 457 293" fill="none" xmlns="http://www.w3.org/2000/svg">
<g filter="url(#filter0_d)">
<path fill-rule="evenodd" clip-rule="evenodd" d="M195.816 31.3525C196.681 30.636 197.79 30.2054 199 30.2054C201.761 30.2054 204 32.4484 204 35.2152C204 35.6082 203.955 35.9906 203.869 36.3574L373.711 106.377C376.608 107.572 379.711 108.186 382.843 108.186H399.185C402.759 108.186 406.308 108.786 409.685 109.961L444.211 121.977C445.546 120.975 447.204 120.382 449 120.382C453.418 120.382 457 123.971 457 128.398C457 132.825 453.418 136.413 449 136.413C445.554 136.413 442.617 134.23 441.491 131.17L412.308 128.837L427 235.107H430V285.205H339.5V250.136L346.5 235.107H358.679L321.193 211.458L150.803 52.0684L18.9827 90.7434C18.7974 92.9776 17.149 94.7956 15 95.2327L15 153.948C15 154.224 14.7761 154.449 14.5 154.449C14.2239 154.449 14 154.224 14 153.948L14 95.3329C11.2386 95.3329 9 93.09 9 90.3231C9 87.5563 11.2386 85.3133 14 85.3133C14.509 85.3133 15.0001 85.3895 15.4628 85.5311L141.469 1.33672C142.1 0.914525 142.916 0.887343 143.575 1.26655L195.816 31.3525ZM394.744 127.434L398.645 127.745L364.84 226.787L342.255 201.328C339.768 198.524 339.554 194.367 341.741 191.322L384.049 132.397C386.502 128.982 390.558 127.099 394.744 127.434ZM189.962 32.6172C191.488 33.4908 191.228 35.7698 189.545 36.2763L158.544 45.6064C157.469 45.9297 156.34 45.3047 156.041 44.2214L146.551 9.8438C146.305 8.95258 147.238 8.19634 148.056 8.62382L189.962 32.6172ZM157.596 50.0753L323.41 184.577C326.794 187.322 331.747 186.852 334.556 183.519L378.065 131.895C385.064 123.59 381.961 110.862 371.929 106.726L203.545 37.307C202.754 39.0293 201.016 40.225 199 40.225C197.702 40.225 196.519 39.7293 195.63 38.9164L157.596 50.0753ZM142.939 11.7964C142.213 9.16415 139.129 8.01513 136.862 9.53212L29.361 81.4822C28.4092 82.1192 29.099 83.5992 30.1975 83.2769L150.856 47.8768C151.904 47.5691 152.512 46.4748 152.221 45.4194L142.939 11.7964ZM420.5 235.107H384.5L405.909 152.877C406.464 150.747 409.543 150.941 409.828 153.124L420.5 235.107ZM394 244.124V240.617H406V244.124H394ZM418.5 240.617H408V244.124H418.5V240.617Z" fill="#4E5155"/>
<path d="M14.5 158.457C14.7761 158.457 15 158.681 15 158.958L15 164.969C15 165.246 14.7761 165.47 14.5 165.47C14.2239 165.47 14 165.246 14 164.969L14 158.958C14 158.681 14.2239 158.457 14.5 158.457Z" fill="#4E5155"/>
</g>
<path d="M17.7212 269.298H20.6764L23.6316 270.154L24.2443 267.98L20.6764 266.982H17.577C16.1595 266.982 15.0783 267.362 14.3335 268.122C13.6127 268.883 13.2523 269.964 13.2523 271.366C13.2523 272.221 13.4325 272.91 13.7929 273.433C14.1533 273.956 14.79 274.514 15.703 275.108L20.9287 278.494C21.3371 278.755 21.6014 278.993 21.7215 279.207C21.8417 279.397 21.9017 279.86 21.9017 280.597C21.9017 281.88 21.277 282.521 20.0277 282.521H16.6039L13.6487 281.666L13 283.84L16.6039 284.802H19.9556C22.9348 284.802 24.4245 283.341 24.4245 280.419C24.4245 278.779 23.8238 277.579 22.6225 276.819C18.7062 274.324 16.7 273.041 16.6039 272.969C16.5319 272.898 16.3997 272.779 16.2075 272.613C16.0393 272.423 15.9192 272.245 15.8471 272.078C15.7991 271.888 15.775 271.686 15.775 271.473C15.775 270.665 15.9312 270.106 16.2435 269.797C16.5559 269.465 17.0484 269.298 17.7212 269.298Z" fill="#4E5155"/>
<path d="M30.4949 283.698C31.0955 284.434 32.3208 284.838 34.1709 284.909L37.2703 284.054L36.6576 281.88L33.9546 282.593C33.2098 282.593 32.7173 282.486 32.477 282.272C32.2608 282.034 32.1527 281.476 32.1527 280.597V269.334H36.9819V266.982H32.1527V265.449L31.7923 262.598L29.3776 263.346L29.6299 265.342V266.982L26.4584 267.338V269.334H29.6299V279.385C29.6299 281.523 29.9182 282.961 30.4949 283.698Z" fill="#4E5155"/>
<path fill-rule="evenodd" clip-rule="evenodd" d="M43.9035 266.982L40.2995 267.98L40.9482 270.154L43.9035 269.298H47.9399C49.1892 269.298 49.8139 269.94 49.8139 271.223V274.074H44.0476C42.6541 274.074 41.5849 274.455 40.8401 275.215C40.0953 275.951 39.7229 276.997 39.7229 278.351V280.525C39.7229 281.88 40.0953 282.937 40.8401 283.698C41.5849 284.434 42.6541 284.802 44.0476 284.802H45.8135L49.85 281.915L50.2464 285.088L52.7331 284.802L52.3367 281.987V271.259C52.3367 269.904 51.9643 268.859 51.2195 268.122C50.4987 267.362 49.4295 266.982 48.0119 266.982H43.9035ZM45.1648 282.521H44.1197C42.8703 282.521 42.2457 281.88 42.2457 280.597V278.209C42.2457 276.926 42.8703 276.284 44.1197 276.284H49.8139V279.171L45.1648 282.521Z" fill="#4E5155"/>
<path d="M70.4186 284.802L70.0582 282.094V271.259C70.0582 269.904 69.6858 268.859 68.941 268.122C68.1961 267.362 67.127 266.982 65.7335 266.982H63.9315L59.859 269.263L59.5347 266.732L57.084 267.053L57.4444 269.94V284.802H59.9672V271.793L64.5081 269.298H65.6614C66.9107 269.298 67.5354 269.94 67.5354 271.223V281.951L67.9319 285.088L70.4186 284.802Z" fill="#4E5155"/>
<path fill-rule="evenodd" clip-rule="evenodd" d="M84.3365 258.321L84.733 261.279V267.766L80.6245 266.982H78.9306C77.5371 266.982 76.4679 267.362 75.7231 268.122C74.9783 268.859 74.6059 269.904 74.6059 271.259V280.525C74.6059 281.88 74.9783 282.937 75.7231 283.698C76.4679 284.434 77.5371 284.802 78.9306 284.802H80.7326L84.805 282.521L85.1654 285.123L87.6161 284.838L87.2557 282.022V261.279L86.8232 258L84.3365 258.321ZM84.733 280.026L80.156 282.521H79.0027C77.7533 282.521 77.1286 281.88 77.1286 280.597V271.223C77.1286 269.94 77.7533 269.298 79.0027 269.298H80.6245L84.733 270.082V280.026Z" fill="#4E5155"/>
<path fill-rule="evenodd" clip-rule="evenodd" d="M95.9564 266.982L92.3525 267.98L93.0012 270.154L95.9564 269.298H99.9928C101.242 269.298 101.867 269.94 101.867 271.223V274.074H96.1006C94.707 274.074 93.6379 274.455 92.8931 275.215C92.1482 275.951 91.7758 276.997 91.7758 278.351V280.525C91.7758 281.88 92.1482 282.937 92.8931 283.698C93.6379 284.434 94.707 284.802 96.1006 284.802H97.8665L101.903 281.915L102.299 285.088L104.786 284.802L104.39 281.987V271.259C104.39 269.904 104.017 268.859 103.272 268.122C102.552 267.362 101.482 266.982 100.065 266.982H95.9564ZM97.2178 282.521H96.1726C94.9233 282.521 94.2986 281.88 94.2986 280.597V278.209C94.2986 276.926 94.9233 276.284 96.1726 276.284H101.867V279.171L97.2178 282.521Z" fill="#4E5155"/>
<path d="M117.786 269.619V266.982H115.984L111.876 269.298L111.48 266.732L109.137 267.053L109.497 269.94V284.802H112.02V271.508L116.561 269.548L117.786 269.619Z" fill="#4E5155"/>
<path d="M123.127 283.698C123.728 284.434 124.953 284.838 126.803 284.909L129.903 284.054L129.29 281.88L126.587 282.593C125.842 282.593 125.35 282.486 125.109 282.272C124.893 282.034 124.785 281.476 124.785 280.597V269.334H129.614V266.982H124.785V265.449L124.425 262.598L122.01 263.346L122.262 265.342V266.982L119.091 267.338V269.334H122.262V279.385C122.262 281.523 122.551 282.961 123.127 283.698Z" fill="#4E5155"/>
<path d="M144.844 269.298H147.8L150.755 270.154L151.367 267.98L147.8 266.982H144.7C143.283 266.982 142.201 267.362 141.457 268.122C140.736 268.883 140.375 269.964 140.375 271.366C140.375 272.221 140.556 272.91 140.916 273.433C141.276 273.956 141.913 274.514 142.826 275.108L148.052 278.494C148.46 278.755 148.725 278.993 148.845 279.207C148.965 279.397 149.025 279.86 149.025 280.597C149.025 281.88 148.4 282.521 147.151 282.521H143.727L140.772 281.666L140.123 283.84L143.727 284.802H147.079C150.058 284.802 151.548 283.341 151.548 280.419C151.548 278.779 150.947 277.579 149.746 276.819C145.829 274.324 143.823 273.041 143.727 272.969C143.655 272.898 143.523 272.779 143.331 272.613C143.163 272.423 143.042 272.245 142.97 272.078C142.922 271.888 142.898 271.686 142.898 271.473C142.898 270.665 143.054 270.106 143.367 269.797C143.679 269.465 144.172 269.298 144.844 269.298Z" fill="#4E5155"/>
<path d="M168.682 284.802L168.322 282.129V271.259C168.322 269.904 167.949 268.859 167.204 268.122C166.46 267.362 165.391 266.982 163.997 266.982H162.195L158.231 269.191V261.315L157.798 258.071L155.312 258.392L155.708 261.279V284.802H158.231V271.793L162.772 269.298H163.601C164.441 269.298 165.018 269.477 165.33 269.833C165.643 270.166 165.799 270.772 165.799 271.651V281.951L166.195 285.088L168.682 284.802Z" fill="#4E5155"/>
<path fill-rule="evenodd" clip-rule="evenodd" d="M176.658 266.982L173.054 267.98L173.703 270.154L176.658 269.298H180.694C181.944 269.298 182.568 269.94 182.568 271.223V274.074H176.802C175.408 274.074 174.339 274.455 173.594 275.215C172.85 275.951 172.477 276.997 172.477 278.351V280.525C172.477 281.88 172.85 282.937 173.594 283.698C174.339 284.434 175.408 284.802 176.802 284.802H178.568L182.604 281.915L183.001 285.088L185.487 284.802L185.091 281.987V271.259C185.091 269.904 184.719 268.859 183.974 268.122C183.253 267.362 182.184 266.982 180.766 266.982H176.658ZM177.919 282.521H176.874C175.625 282.521 175 281.88 175 280.597V278.209C175 276.926 175.625 276.284 176.874 276.284H182.568V279.171L177.919 282.521Z" fill="#4E5155"/>
<path d="M198.488 269.619V266.982H196.686L192.577 269.298L192.181 266.732L189.838 267.053L190.199 269.94V284.802H192.721V271.508L197.262 269.548L198.488 269.619Z" fill="#4E5155"/>
<path fill-rule="evenodd" clip-rule="evenodd" d="M202.639 283.698C203.384 284.434 204.465 284.802 205.883 284.802H209.739L213.307 283.84L212.658 281.666L209.739 282.521H205.955C204.706 282.521 204.081 281.88 204.081 280.597V276.712H211.649L213.631 274.965V271.259C213.631 269.904 213.259 268.859 212.514 268.122C211.793 267.362 210.724 266.982 209.307 266.982H205.883C204.465 266.982 203.384 267.362 202.639 268.122C201.919 268.859 201.558 269.904 201.558 271.259V280.525C201.558 281.904 201.919 282.961 202.639 283.698ZM204.081 274.431V271.223C204.081 269.94 204.706 269.298 205.955 269.298H209.235C210.484 269.298 211.109 269.94 211.109 271.223V274.039L210.604 274.431H204.081Z" fill="#4E5155"/>
<path fill-rule="evenodd" clip-rule="evenodd" d="M226.91 258.321L227.307 261.279V267.766L223.198 266.982H221.504C220.111 266.982 219.042 267.362 218.297 268.122C217.552 268.859 217.18 269.904 217.18 271.259V280.525C217.18 281.88 217.552 282.937 218.297 283.698C219.042 284.434 220.111 284.802 221.504 284.802H223.306L227.379 282.521L227.739 285.123L230.19 284.838L229.829 282.022V261.279L229.397 258L226.91 258.321ZM227.307 280.026L222.73 282.521H221.576C220.327 282.521 219.702 281.88 219.702 280.597V271.223C219.702 269.94 220.327 269.298 221.576 269.298H223.198L227.307 270.082V280.026Z" fill="#4E5155"/>
<path d="M251.271 266.982H247.307C245.889 266.982 244.808 267.362 244.063 268.122C243.343 268.859 242.982 269.904 242.982 271.259V280.525C242.982 281.904 243.343 282.961 244.063 283.698C244.808 284.434 245.889 284.802 247.307 284.802H251.452L255.019 283.84L254.407 281.666L251.452 282.521H247.379C246.13 282.521 245.505 281.88 245.505 280.597V271.223C245.505 269.94 246.13 269.298 247.379 269.298H251.271L254.227 270.154L254.839 267.98L251.271 266.982Z" fill="#4E5155"/>
<path fill-rule="evenodd" clip-rule="evenodd" d="M262.265 284.802H266.229C267.647 284.802 268.716 284.434 269.437 283.698C270.181 282.961 270.554 281.904 270.554 280.525V271.259C270.554 269.904 270.181 268.859 269.437 268.122C268.716 267.362 267.647 266.982 266.229 266.982H262.265C260.847 266.982 259.766 267.362 259.021 268.122C258.3 268.859 257.94 269.904 257.94 271.259V280.525C257.94 281.904 258.3 282.961 259.021 283.698C259.766 284.434 260.847 284.802 262.265 284.802ZM262.337 269.298H266.157C267.406 269.298 268.031 269.94 268.031 271.223V280.597C268.031 281.88 267.406 282.521 266.157 282.521H262.337C261.087 282.521 260.463 281.88 260.463 280.597V271.223C260.463 269.94 261.087 269.298 262.337 269.298Z" fill="#4E5155"/>
<path d="M288.274 284.802L287.913 282.094V271.259C287.913 269.904 287.541 268.859 286.796 268.122C286.051 267.362 284.982 266.982 283.589 266.982H281.787L277.714 269.263L277.39 266.732L274.939 267.053L275.299 269.94V284.802H277.822V271.793L282.363 269.298H283.516C284.766 269.298 285.39 269.94 285.39 271.223V281.951L285.787 285.088L288.274 284.802Z" fill="#4E5155"/>
<path d="M296.605 262.633C296.605 261.35 297.23 260.709 298.48 260.709H299.849L302.336 261.422L302.984 259.247L299.849 258.392H298.407C296.99 258.392 295.909 258.772 295.164 259.533C294.443 260.269 294.083 261.315 294.083 262.669V266.982L290.911 267.302V269.334H294.083V284.802H296.605V269.334H301.363V266.982H296.605V262.633Z" fill="#4E5155"/>
<path d="M305.109 269.833V284.802H307.632V269.869L307.2 266.661L304.713 266.982L305.109 269.833Z" fill="#4E5155"/>
<path d="M306.082 263.346H306.659C307.043 263.346 307.344 263.239 307.56 263.025C307.8 262.788 307.92 262.479 307.92 262.099V261.529C307.92 261.148 307.8 260.839 307.56 260.602C307.344 260.364 307.043 260.245 306.659 260.245H306.082C305.698 260.245 305.386 260.364 305.145 260.602C304.905 260.839 304.785 261.148 304.785 261.529V262.099C304.785 262.479 304.905 262.788 305.145 263.025C305.386 263.239 305.698 263.346 306.082 263.346Z" fill="#4E5155"/>
<path fill-rule="evenodd" clip-rule="evenodd" d="M320.279 290.719H316.495L313.539 289.864L312.891 292.038L316.495 293H320.027C323.342 293 325 291.396 325 288.188V267.409L316.711 266.625C315.293 266.625 314.212 267.005 313.467 267.766C312.747 268.502 312.386 269.548 312.386 270.902V280.525C312.386 281.904 312.747 282.961 313.467 283.698C314.212 284.434 315.293 284.802 316.711 284.802H318.513L322.477 282.593V288.188C322.477 289.068 322.309 289.709 321.973 290.113C321.636 290.517 321.072 290.719 320.279 290.719ZM322.477 279.955L317.9 282.521H316.783C315.534 282.521 314.909 281.88 314.909 280.597V270.867C314.909 269.583 315.534 268.942 316.783 268.942L322.477 269.405V279.955Z" fill="#4E5155"/>
<defs>
<filter id="filter0_d" x="0" y="0" width="457" height="286.205" filterUnits="userSpaceOnUse" color-interpolation-filters="sRGB">
<feFlood flood-opacity="0" result="BackgroundImageFix"/>
<feColorMatrix in="SourceAlpha" type="matrix" values="0 0 0 0 0 0 0 0 0 0 0 0 0 0 0 0 0 0 127 0"/>
<feOffset dx="-8"/>
<feGaussianBlur stdDeviation="0.5"/>
<feColorMatrix type="matrix" values="0 0 0 0 0 0 0 0 0 0 0 0 0 0 0 0 0 0 0.2 0"/>
<feBlend mode="normal" in2="BackgroundImageFix" result="effect1_dropShadow"/>
<feBlend mode="normal" in="SourceGraphic" in2="effect1_dropShadow" result="shape"/>
</filter>
</defs>
</svg>
